<svg width="50" height="50" viewBox="0 0 50 50" fill="none" xmlns="http://www.w3.org/2000/svg">
<rect width="50" height="50" fill="black"/>
<path d="M1.76136 32V17.4545H6.67614C7.8125 17.4545 8.74527 17.6487 9.47443 18.0369C10.2036 18.4205 10.7434 18.9484 11.0938 19.6207C11.4441 20.2931 11.6193 21.0578 11.6193 21.9148C11.6193 22.7718 11.4441 23.5317 11.0938 24.1946C10.7434 24.8575 10.206 25.3783 9.48153 25.7571C8.7571 26.1312 7.83144 26.3182 6.70455 26.3182H2.72727V24.7273H6.64773C7.42424 24.7273 8.04924 24.6136 8.52273 24.3864C9.00095 24.1591 9.34659 23.8371 9.55966 23.4205C9.77746 22.9991 9.88636 22.4972 9.88636 21.9148C9.88636 21.3324 9.77746 20.8234 9.55966 20.3878C9.34186 19.9522 8.99384 19.616 8.51562 19.3793C8.03741 19.1378 7.4053 19.017 6.61932 19.017H3.52273V32H1.76136ZM8.60795 25.4659L12.1875 32H10.142L6.61932 25.4659H8.60795Z" fill="#FF2F2F"/>
<path d="M14.7614 32V17.4545H23.5398V19.017H16.5227V23.9318H23.0852V25.4943H16.5227V30.4375H23.6534V32H14.7614ZM27.7372 21.0909L30.3509 25.5511L32.9645 21.0909H34.8963L31.3736 26.5455L34.8963 32H32.9645L30.3509 27.767L27.7372 32H25.8054L29.2713 26.5455L25.8054 21.0909H27.7372Z" fill="#FF2F2F"/>
<path d="M36.9659 19.017V17.4545H47.875V19.017H43.3011V32H41.5398V19.017H36.9659Z" fill="#5F3BFF"/>
</svg>
